<svg xmlns="http://www.w3.org/2000/svg" viewBox="0 0 300 250" font-family="system-ui, sans-serif">
  <defs>
    <linearGradient id="g" x1="0" y1="0" x2="1" y2="1">
      <stop offset="0" stop-color="#7f1d1d"/>
      <stop offset="1" stop-color="#171717"/>
    </linearGradient>
  </defs>
  <rect width="300" height="250" fill="url(#g)"/>
  <path d="M40 90 Q40 70 60 70 L200 70 Q220 70 220 90 L220 140 Q220 160 200 160 L100 160 L70 180 L80 160 L60 160 Q40 160 40 140 Z" fill="#fda4af" opacity="0.95"/>
  <circle cx="90" cy="115" r="4" fill="#7f1d1d"/>
  <circle cx="125" cy="115" r="4" fill="#7f1d1d"/>
  <circle cx="160" cy="115" r="4" fill="#7f1d1d"/>
  <circle cx="195" cy="195" r="6" fill="#22c55e"/>
  <text x="208" y="200" fill="#fff" font-size="13" font-weight="700">online now</text>
  <rect x="245" y="15" width="40" height="22" rx="4" fill="#fff"/>
  <text x="265" y="31" fill="#7f1d1d" font-size="12" font-weight="900" text-anchor="middle">18+</text>
  <text x="20" y="40" fill="#fda4af" font-size="13" font-weight="800" letter-spacing="3">NEW MESSAGE</text>
  <text x="20" y="232" fill="#fff" font-size="12" opacity="0.8">From a verified profile</text>
</svg>
